<svg width="1659" height="999" xmlns="http://www.w3.org/2000/svg" xmlns:xlink="http://www.w3.org/1999/xlink" overflow="hidden"><defs><clipPath id="clip0"><rect x="2232" y="334" width="1659" height="999"/></clipPath><clipPath id="clip1"><rect x="2236" y="339" width="1650" height="990"/></clipPath><clipPath id="clip2"><rect x="2236" y="339" width="1650" height="990"/></clipPath><clipPath id="clip3"><rect x="2367" y="389" width="1131" height="837"/></clipPath><clipPath id="clip4"><rect x="2236" y="339" width="1650" height="990"/></clipPath><clipPath id="clip5"><rect x="2367" y="389" width="1131" height="837"/></clipPath><clipPath id="clip6"><rect x="2236" y="339" width="1650" height="990"/></clipPath><clipPath id="clip7"><rect x="2367" y="389" width="1131" height="837"/></clipPath><clipPath id="clip8"><rect x="2236" y="339" width="1650" height="990"/></clipPath><clipPath id="clip9"><rect x="2367" y="389" width="1131" height="837"/></clipPath><clipPath id="clip10"><rect x="2236" y="339" width="1650" height="990"/></clipPath><clipPath id="clip11"><rect x="2236" y="339" width="1650" height="990"/></clipPath><clipPath id="clip12"><rect x="2236" y="339" width="1650" height="990"/></clipPath><clipPath id="clip13"><rect x="2236" y="339" width="1650" height="990"/></clipPath><clipPath id="clip14"><rect x="2236" y="339" width="1650" height="990"/></clipPath><clipPath id="clip15"><rect x="2236" y="339" width="1650" height="990"/></clipPath><clipPath id="clip16"><rect x="2236" y="339" width="1650" height="990"/></clipPath><clipPath id="clip17"><rect x="2236" y="339" width="1650" height="990"/></clipPath><clipPath id="clip18"><rect x="2236" y="339" width="1650" height="990"/></clipPath><clipPath id="clip19"><rect x="2236" y="339" width="1650" height="990"/></clipPath><clipPath id="clip20"><rect x="2236" y="339" width="1650" height="990"/></clipPath><clipPath id="clip21"><rect x="2236" y="339" width="1650" height="990"/></clipPath><clipPath id="clip22"><rect x="2236" y="339" width="1650" height="990"/></clipPath><clipPath id="clip23"><rect x="2236" y="339" width="1650" height="990"/></clipPath><clipPath id="clip24"><rect x="2236" y="339" width="1650" height="990"/></clipPath><clipPath id="clip25"><rect x="2236" y="339" width="1650" height="990"/></clipPath><clipPath id="clip26"><rect x="2236" y="339" width="1650" height="990"/></clipPath><clipPath id="clip27"><rect x="2236" y="339" width="1650" height="990"/></clipPath><clipPath id="clip28"><rect x="2236" y="339" width="1650" height="990"/></clipPath><clipPath id="clip29"><rect x="2236" y="339" width="1650" height="990"/></clipPath><clipPath id="clip30"><rect x="2236" y="339" width="1650" height="990"/></clipPath><clipPath id="clip31"><rect x="2236" y="339" width="1650" height="990"/></clipPath><clipPath id="clip32"><rect x="2236" y="339" width="1650" height="990"/></clipPath><clipPath id="clip33"><rect x="2236" y="339" width="1650" height="990"/></clipPath><clipPath id="clip34"><rect x="2236" y="339" width="1650" height="990"/></clipPath><clipPath id="clip35"><rect x="2236" y="339" width="1650" height="990"/></clipPath><clipPath id="clip36"><rect x="2236" y="339" width="1650" height="990"/></clipPath><clipPath id="clip37"><rect x="2236" y="339" width="1650" height="990"/></clipPath><clipPath id="clip38"><rect x="2236" y="339" width="1650" height="990"/></clipPath><clipPath id="clip39"><rect x="2236" y="339" width="1650" height="990"/></clipPath><clipPath id="clip40"><rect x="2236" y="339" width="1650" height="990"/></clipPath></defs><g clip-path="url(#clip0)" transform="translate(-2232 -334)"><rect x="2237" y="339" width="1650" height="990" fill="#FFFFFF" fill-opacity="1"/><g clip-path="url(#clip1)"><path d="M2367.5 1056.53 3495.5 1056.53M2367.5 889.529 3495.5 889.529M2367.5 722.524 3495.5 722.524M2367.5 556.518 3495.5 556.518M2367.5 389.5 3495.5 389.5" stroke="#D9D9D9" stroke-width="3.4375" stroke-linecap="butt" stroke-linejoin="round" stroke-miterlimit="10" stroke-opacity="1" fill="none" fill-rule="nonzero"/></g><g clip-path="url(#clip2)"><path d="M2367.5 1222.5 3495.5 1222.5" stroke="#D9D9D9" stroke-width="3.4375" stroke-linecap="butt" stroke-linejoin="round" stroke-miterlimit="10" stroke-opacity="1" fill="none" fill-rule="evenodd"/></g><g clip-path="url(#clip3)"><path d="M2414 1109.04 2508.08 1133.04 2602.09 1129.04 2696.09 1133.04 2790.09 1136.04 2884.09 1133.04 2978.1 1080 3072.1 1113.04 3166.1 1143.04 3260.11 1156 3354.11 1099.04 3448 1146.04" stroke="#4472C4" stroke-width="10.3125" stroke-linecap="round" stroke-linejoin="round" stroke-miterlimit="10" stroke-opacity="1" fill="none" fill-rule="nonzero"/></g><g clip-path="url(#clip4)"><path d="M2425.17 1109.67C2425.17 1115.74 2420.24 1120.67 2414.17 1120.67 2408.09 1120.67 2403.17 1115.74 2403.17 1109.67 2403.17 1103.59 2408.09 1098.67 2414.17 1098.67 2420.24 1098.67 2425.17 1103.59 2425.17 1109.67Z" stroke="#4472C4" stroke-width="3.4375" stroke-linecap="butt" stroke-linejoin="round" stroke-miterlimit="10" stroke-opacity="1" fill="#4472C4" fill-rule="nonzero" fill-opacity="1"/><path d="M2519.17 1132.67C2519.17 1138.74 2514.24 1143.67 2508.17 1143.67 2502.09 1143.67 2497.17 1138.74 2497.17 1132.67 2497.17 1126.59 2502.09 1121.67 2508.17 1121.67 2514.24 1121.67 2519.17 1126.59 2519.17 1132.67Z" stroke="#4472C4" stroke-width="3.4375" stroke-linecap="butt" stroke-linejoin="round" stroke-miterlimit="10" stroke-opacity="1" fill="#4472C4" fill-rule="nonzero" fill-opacity="1"/><path d="M2613.17 1129.67C2613.17 1135.74 2608.24 1140.67 2602.17 1140.67 2596.09 1140.67 2591.17 1135.74 2591.17 1129.67 2591.17 1123.59 2596.09 1118.67 2602.17 1118.67 2608.24 1118.67 2613.17 1123.59 2613.17 1129.67Z" stroke="#4472C4" stroke-width="3.4375" stroke-linecap="butt" stroke-linejoin="round" stroke-miterlimit="10" stroke-opacity="1" fill="#4472C4" fill-rule="nonzero" fill-opacity="1"/><path d="M2707.17 1132.67C2707.17 1138.74 2702.24 1143.67 2696.17 1143.67 2690.09 1143.67 2685.17 1138.74 2685.17 1132.67 2685.17 1126.59 2690.09 1121.67 2696.17 1121.67 2702.24 1121.67 2707.17 1126.59 2707.17 1132.67Z" stroke="#4472C4" stroke-width="3.4375" stroke-linecap="butt" stroke-linejoin="round" stroke-miterlimit="10" stroke-opacity="1" fill="#4472C4" fill-rule="nonzero" fill-opacity="1"/><path d="M2801.17 1136.67C2801.17 1142.74 2796.24 1147.67 2790.17 1147.67 2784.09 1147.67 2779.17 1142.74 2779.17 1136.67 2779.17 1130.59 2784.09 1125.67 2790.17 1125.67 2796.24 1125.67 2801.17 1130.59 2801.17 1136.67Z" stroke="#4472C4" stroke-width="3.4375" stroke-linecap="butt" stroke-linejoin="round" stroke-miterlimit="10" stroke-opacity="1" fill="#4472C4" fill-rule="nonzero" fill-opacity="1"/><path d="M2895.17 1132.67C2895.17 1138.74 2890.24 1143.67 2884.17 1143.67 2878.09 1143.67 2873.17 1138.74 2873.17 1132.67 2873.17 1126.59 2878.09 1121.67 2884.17 1121.67 2890.24 1121.67 2895.17 1126.59 2895.17 1132.67Z" stroke="#4472C4" stroke-width="3.4375" stroke-linecap="butt" stroke-linejoin="round" stroke-miterlimit="10" stroke-opacity="1" fill="#4472C4" fill-rule="nonzero" fill-opacity="1"/><path d="M2989.17 1079.67C2989.17 1085.74 2984.24 1090.67 2978.17 1090.67 2972.09 1090.67 2967.17 1085.74 2967.17 1079.67 2967.17 1073.59 2972.09 1068.67 2978.17 1068.67 2984.24 1068.67 2989.17 1073.59 2989.17 1079.67Z" stroke="#4472C4" stroke-width="3.4375" stroke-linecap="butt" stroke-linejoin="round" stroke-miterlimit="10" stroke-opacity="1" fill="#4472C4" fill-rule="nonzero" fill-opacity="1"/><path d="M3083.17 1112.67C3083.17 1118.74 3078.24 1123.67 3072.17 1123.67 3066.09 1123.67 3061.17 1118.74 3061.17 1112.67 3061.17 1106.59 3066.09 1101.67 3072.17 1101.67 3078.24 1101.67 3083.17 1106.59 3083.17 1112.67Z" stroke="#4472C4" stroke-width="3.4375" stroke-linecap="butt" stroke-linejoin="round" stroke-miterlimit="10" stroke-opacity="1" fill="#4472C4" fill-rule="nonzero" fill-opacity="1"/><path d="M3177.17 1142.67C3177.17 1148.74 3172.24 1153.67 3166.17 1153.67 3160.09 1153.67 3155.17 1148.74 3155.17 1142.67 3155.17 1136.59 3160.09 1131.67 3166.17 1131.67 3172.24 1131.67 3177.17 1136.59 3177.17 1142.67Z" stroke="#4472C4" stroke-width="3.4375" stroke-linecap="butt" stroke-linejoin="round" stroke-miterlimit="10" stroke-opacity="1" fill="#4472C4" fill-rule="nonzero" fill-opacity="1"/><path d="M3271.17 1156.67C3271.17 1162.74 3266.24 1167.67 3260.17 1167.67 3254.09 1167.67 3249.17 1162.74 3249.17 1156.67 3249.17 1150.59 3254.09 1145.67 3260.17 1145.67 3266.24 1145.67 3271.17 1150.59 3271.17 1156.67Z" stroke="#4472C4" stroke-width="3.4375" stroke-linecap="butt" stroke-linejoin="round" stroke-miterlimit="10" stroke-opacity="1" fill="#4472C4" fill-rule="nonzero" fill-opacity="1"/><path d="M3365.17 1099.67C3365.17 1105.74 3360.24 1110.67 3354.17 1110.67 3348.09 1110.67 3343.17 1105.74 3343.17 1099.67 3343.17 1093.59 3348.09 1088.67 3354.17 1088.67 3360.24 1088.67 3365.17 1093.59 3365.17 1099.67Z" stroke="#4472C4" stroke-width="3.4375" stroke-linecap="butt" stroke-linejoin="round" stroke-miterlimit="10" stroke-opacity="1" fill="#4472C4" fill-rule="nonzero" fill-opacity="1"/><path d="M3459.17 1146.67C3459.17 1152.74 3454.24 1157.67 3448.17 1157.67 3442.09 1157.67 3437.17 1152.74 3437.17 1146.67 3437.17 1140.59 3442.09 1135.67 3448.17 1135.67 3454.24 1135.67 3459.17 1140.59 3459.17 1146.67Z" stroke="#4472C4" stroke-width="3.4375" stroke-linecap="butt" stroke-linejoin="round" stroke-miterlimit="10" stroke-opacity="1" fill="#4472C4" fill-rule="nonzero" fill-opacity="1"/></g><g clip-path="url(#clip5)"><path d="M2414 726.024 2508.08 870.029 2602.09 863.028 2696.09 883 2790.09 803.026 2884.09 733.024 2978.1 723 3072.1 776.025 3166.1 800.026 3260.11 726.024 3354.11 843.028 3448 830.027" stroke="#ED7D31" stroke-width="10.3125" stroke-linecap="round" stroke-linejoin="round" stroke-miterlimit="10" stroke-opacity="1" fill="none" fill-rule="nonzero"/></g><g clip-path="url(#clip6)"><path d="M2425.17 726.667C2425.17 732.742 2420.24 737.666 2414.17 737.666 2408.09 737.666 2403.17 732.742 2403.17 726.667 2403.17 720.592 2408.09 715.667 2414.17 715.667 2420.24 715.667 2425.17 720.592 2425.17 726.667Z" stroke="#ED7D31" stroke-width="3.4375" stroke-linecap="butt" stroke-linejoin="round" stroke-miterlimit="10" stroke-opacity="1" fill="#ED7D31" fill-rule="nonzero" fill-opacity="1"/><path d="M2519.17 869.667C2519.17 875.742 2514.24 880.666 2508.17 880.666 2502.09 880.666 2497.17 875.742 2497.17 869.667 2497.17 863.592 2502.09 858.667 2508.17 858.667 2514.24 858.667 2519.17 863.592 2519.17 869.667Z" stroke="#ED7D31" stroke-width="3.4375" stroke-linecap="butt" stroke-linejoin="round" stroke-miterlimit="10" stroke-opacity="1" fill="#ED7D31" fill-rule="nonzero" fill-opacity="1"/><path d="M2613.17 862.666C2613.17 868.741 2608.24 873.666 2602.17 873.666 2596.09 873.666 2591.17 868.741 2591.17 862.666 2591.17 856.591 2596.09 851.667 2602.17 851.667 2608.24 851.667 2613.17 856.591 2613.17 862.666Z" stroke="#ED7D31" stroke-width="3.4375" stroke-linecap="butt" stroke-linejoin="round" stroke-miterlimit="10" stroke-opacity="1" fill="#ED7D31" fill-rule="nonzero" fill-opacity="1"/><path d="M2707.17 882.666C2707.17 888.741 2702.24 893.666 2696.17 893.666 2690.09 893.666 2685.17 888.741 2685.17 882.666 2685.17 876.591 2690.09 871.667 2696.17 871.667 2702.24 871.667 2707.17 876.591 2707.17 882.666Z" stroke="#ED7D31" stroke-width="3.4375" stroke-linecap="butt" stroke-linejoin="round" stroke-miterlimit="10" stroke-opacity="1" fill="#ED7D31" fill-rule="nonzero" fill-opacity="1"/><path d="M2801.17 802.667C2801.17 808.741 2796.24 813.666 2790.17 813.666 2784.09 813.666 2779.17 808.741 2779.17 802.667 2779.17 796.592 2784.09 791.667 2790.17 791.667 2796.24 791.667 2801.17 796.592 2801.17 802.667Z" stroke="#ED7D31" stroke-width="3.4375" stroke-linecap="butt" stroke-linejoin="round" stroke-miterlimit="10" stroke-opacity="1" fill="#ED7D31" fill-rule="nonzero" fill-opacity="1"/><path d="M2895.17 732.666C2895.17 738.741 2890.24 743.666 2884.17 743.666 2878.09 743.666 2873.17 738.741 2873.17 732.666 2873.17 726.591 2878.09 721.667 2884.17 721.667 2890.24 721.667 2895.17 726.591 2895.17 732.666Z" stroke="#ED7D31" stroke-width="3.4375" stroke-linecap="butt" stroke-linejoin="round" stroke-miterlimit="10" stroke-opacity="1" fill="#ED7D31" fill-rule="nonzero" fill-opacity="1"/><path d="M2989.17 722.666C2989.17 728.741 2984.24 733.666 2978.17 733.666 2972.09 733.666 2967.17 728.741 2967.17 722.666 2967.17 716.592 2972.09 711.667 2978.17 711.667 2984.24 711.667 2989.17 716.592 2989.17 722.666Z" stroke="#ED7D31" stroke-width="3.4375" stroke-linecap="butt" stroke-linejoin="round" stroke-miterlimit="10" stroke-opacity="1" fill="#ED7D31" fill-rule="nonzero" fill-opacity="1"/><path d="M3083.17 776.666C3083.17 782.741 3078.24 787.666 3072.17 787.666 3066.09 787.666 3061.17 782.741 3061.17 776.666 3061.17 770.591 3066.09 765.667 3072.17 765.667 3078.24 765.667 3083.17 770.591 3083.17 776.666Z" stroke="#ED7D31" stroke-width="3.4375" stroke-linecap="butt" stroke-linejoin="round" stroke-miterlimit="10" stroke-opacity="1" fill="#ED7D31" fill-rule="nonzero" fill-opacity="1"/><path d="M3177.17 799.666C3177.17 805.741 3172.24 810.666 3166.17 810.666 3160.09 810.666 3155.17 805.741 3155.17 799.666 3155.17 793.592 3160.09 788.667 3166.17 788.667 3172.24 788.667 3177.17 793.592 3177.17 799.666Z" stroke="#ED7D31" stroke-width="3.4375" stroke-linecap="butt" stroke-linejoin="round" stroke-miterlimit="10" stroke-opacity="1" fill="#ED7D31" fill-rule="nonzero" fill-opacity="1"/><path d="M3271.17 726.667C3271.17 732.742 3266.24 737.666 3260.17 737.666 3254.09 737.666 3249.17 732.742 3249.17 726.667 3249.17 720.592 3254.09 715.667 3260.17 715.667 3266.24 715.667 3271.17 720.592 3271.17 726.667Z" stroke="#ED7D31" stroke-width="3.4375" stroke-linecap="butt" stroke-linejoin="round" stroke-miterlimit="10" stroke-opacity="1" fill="#ED7D31" fill-rule="nonzero" fill-opacity="1"/><path d="M3365.17 842.666C3365.17 848.741 3360.24 853.666 3354.17 853.666 3348.09 853.666 3343.17 848.741 3343.17 842.666 3343.17 836.591 3348.09 831.667 3354.17 831.667 3360.24 831.667 3365.17 836.591 3365.17 842.666Z" stroke="#ED7D31" stroke-width="3.4375" stroke-linecap="butt" stroke-linejoin="round" stroke-miterlimit="10" stroke-opacity="1" fill="#ED7D31" fill-rule="nonzero" fill-opacity="1"/><path d="M3459.17 829.666C3459.17 835.741 3454.24 840.666 3448.17 840.666 3442.09 840.666 3437.17 835.741 3437.17 829.666 3437.17 823.591 3442.09 818.667 3448.17 818.667 3454.24 818.667 3459.17 823.591 3459.17 829.666Z" stroke="#ED7D31" stroke-width="3.4375" stroke-linecap="butt" stroke-linejoin="round" stroke-miterlimit="10" stroke-opacity="1" fill="#ED7D31" fill-rule="nonzero" fill-opacity="1"/></g><g clip-path="url(#clip7)"><path d="M2414 1216 2508.08 1163.04 2602 1123" stroke="#A5A5A5" stroke-width="10.3125" stroke-linecap="round" stroke-linejoin="round" stroke-miterlimit="10" stroke-opacity="1" fill="none" fill-rule="nonzero"/></g><g clip-path="url(#clip8)"><path d="M2425.17 1216.67C2425.17 1222.74 2420.24 1227.67 2414.17 1227.67 2408.09 1227.67 2403.17 1222.74 2403.17 1216.67 2403.17 1210.59 2408.09 1205.67 2414.17 1205.67 2420.24 1205.67 2425.17 1210.59 2425.17 1216.67Z" stroke="#A5A5A5" stroke-width="3.4375" stroke-linecap="butt" stroke-linejoin="round" stroke-miterlimit="10" stroke-opacity="1" fill="#A5A5A5" fill-rule="nonzero" fill-opacity="1"/><path d="M2519.17 1162.67C2519.17 1168.74 2514.24 1173.67 2508.17 1173.67 2502.09 1173.67 2497.17 1168.74 2497.17 1162.67 2497.17 1156.59 2502.09 1151.67 2508.17 1151.67 2514.24 1151.67 2519.17 1156.59 2519.17 1162.67Z" stroke="#A5A5A5" stroke-width="3.4375" stroke-linecap="butt" stroke-linejoin="round" stroke-miterlimit="10" stroke-opacity="1" fill="#A5A5A5" fill-rule="nonzero" fill-opacity="1"/><path d="M2613.17 1122.67C2613.17 1128.74 2608.24 1133.67 2602.17 1133.67 2596.09 1133.67 2591.17 1128.74 2591.17 1122.67 2591.17 1116.59 2596.09 1111.67 2602.17 1111.67 2608.24 1111.67 2613.17 1116.59 2613.17 1122.67Z" stroke="#A5A5A5" stroke-width="3.4375" stroke-linecap="butt" stroke-linejoin="round" stroke-miterlimit="10" stroke-opacity="1" fill="#A5A5A5" fill-rule="nonzero" fill-opacity="1"/></g><g clip-path="url(#clip9)"><path d="M2414 616.02 2508.08 550.018 2602.09 623.02 2696.09 583.019 2790.09 443 2884.09 520.017 2978.1 576.019 3072.1 670.022 3166.1 733.024 3260.11 613.02 3354.11 613.02 3448 853" stroke="#FFC000" stroke-width="10.3125" stroke-linecap="round" stroke-linejoin="round" stroke-miterlimit="10" stroke-opacity="1" fill="none" fill-rule="nonzero"/></g><g clip-path="url(#clip10)"><path d="M2425.17 616.667C2425.17 622.742 2420.24 627.666 2414.17 627.666 2408.09 627.666 2403.17 622.742 2403.17 616.667 2403.17 610.592 2408.09 605.667 2414.17 605.667 2420.24 605.667 2425.17 610.592 2425.17 616.667Z" stroke="#FFC000" stroke-width="3.4375" stroke-linecap="butt" stroke-linejoin="round" stroke-miterlimit="10" stroke-opacity="1" fill="#FFC000" fill-rule="nonzero" fill-opacity="1"/><path d="M2519.17 549.667C2519.17 555.741 2514.24 560.666 2508.17 560.666 2502.09 560.666 2497.17 555.741 2497.17 549.667 2497.17 543.592 2502.09 538.667 2508.17 538.667 2514.24 538.667 2519.17 543.592 2519.17 549.667Z" stroke="#FFC000" stroke-width="3.4375" stroke-linecap="butt" stroke-linejoin="round" stroke-miterlimit="10" stroke-opacity="1" fill="#FFC000" fill-rule="nonzero" fill-opacity="1"/><path d="M2613.17 622.666C2613.17 628.741 2608.24 633.666 2602.17 633.666 2596.09 633.666 2591.17 628.741 2591.17 622.666 2591.17 616.591 2596.09 611.667 2602.17 611.667 2608.24 611.667 2613.17 616.591 2613.17 622.666Z" stroke="#FFC000" stroke-width="3.4375" stroke-linecap="butt" stroke-linejoin="round" stroke-miterlimit="10" stroke-opacity="1" fill="#FFC000" fill-rule="nonzero" fill-opacity="1"/><path d="M2707.17 582.667C2707.17 588.741 2702.24 593.666 2696.17 593.666 2690.09 593.666 2685.17 588.741 2685.17 582.667 2685.17 576.592 2690.09 571.667 2696.17 571.667 2702.24 571.667 2707.17 576.592 2707.17 582.667Z" stroke="#FFC000" stroke-width="3.4375" stroke-linecap="butt" stroke-linejoin="round" stroke-miterlimit="10" stroke-opacity="1" fill="#FFC000" fill-rule="nonzero" fill-opacity="1"/><path d="M2801.17 442.666C2801.17 448.741 2796.24 453.666 2790.17 453.666 2784.09 453.666 2779.17 448.741 2779.17 442.666 2779.17 436.591 2784.09 431.667 2790.17 431.667 2796.24 431.667 2801.17 436.591 2801.17 442.666Z" stroke="#FFC000" stroke-width="3.4375" stroke-linecap="butt" stroke-linejoin="round" stroke-miterlimit="10" stroke-opacity="1" fill="#FFC000" fill-rule="nonzero" fill-opacity="1"/><path d="M2895.17 519.666C2895.17 525.741 2890.24 530.666 2884.17 530.666 2878.09 530.666 2873.17 525.741 2873.17 519.666 2873.17 513.591 2878.09 508.667 2884.17 508.667 2890.24 508.667 2895.17 513.591 2895.17 519.666Z" stroke="#FFC000" stroke-width="3.4375" stroke-linecap="butt" stroke-linejoin="round" stroke-miterlimit="10" stroke-opacity="1" fill="#FFC000" fill-rule="nonzero" fill-opacity="1"/><path d="M2989.17 576.666C2989.17 582.741 2984.24 587.666 2978.17 587.666 2972.09 587.666 2967.17 582.741 2967.17 576.666 2967.17 570.591 2972.09 565.667 2978.17 565.667 2984.24 565.667 2989.17 570.591 2989.17 576.666Z" stroke="#FFC000" stroke-width="3.4375" stroke-linecap="butt" stroke-linejoin="round" stroke-miterlimit="10" stroke-opacity="1" fill="#FFC000" fill-rule="nonzero" fill-opacity="1"/><path d="M3083.17 669.667C3083.17 675.741 3078.24 680.666 3072.17 680.666 3066.09 680.666 3061.17 675.741 3061.17 669.667 3061.17 663.592 3066.09 658.667 3072.17 658.667 3078.24 658.667 3083.17 663.592 3083.17 669.667Z" stroke="#FFC000" stroke-width="3.4375" stroke-linecap="butt" stroke-linejoin="round" stroke-miterlimit="10" stroke-opacity="1" fill="#FFC000" fill-rule="nonzero" fill-opacity="1"/><path d="M3177.17 732.666C3177.17 738.741 3172.24 743.666 3166.17 743.666 3160.09 743.666 3155.17 738.741 3155.17 732.666 3155.17 726.591 3160.09 721.667 3166.17 721.667 3172.24 721.667 3177.17 726.591 3177.17 732.666Z" stroke="#FFC000" stroke-width="3.4375" stroke-linecap="butt" stroke-linejoin="round" stroke-miterlimit="10" stroke-opacity="1" fill="#FFC000" fill-rule="nonzero" fill-opacity="1"/><path d="M3271.17 612.666C3271.17 618.741 3266.24 623.666 3260.17 623.666 3254.09 623.666 3249.17 618.741 3249.17 612.666 3249.17 606.592 3254.09 601.667 3260.17 601.667 3266.24 601.667 3271.17 606.592 3271.17 612.666Z" stroke="#FFC000" stroke-width="3.4375" stroke-linecap="butt" stroke-linejoin="round" stroke-miterlimit="10" stroke-opacity="1" fill="#FFC000" fill-rule="nonzero" fill-opacity="1"/><path d="M3365.17 612.666C3365.17 618.741 3360.24 623.666 3354.17 623.666 3348.09 623.666 3343.17 618.741 3343.17 612.666 3343.17 606.592 3348.09 601.667 3354.17 601.667 3360.24 601.667 3365.17 606.592 3365.17 612.666Z" stroke="#FFC000" stroke-width="3.4375" stroke-linecap="butt" stroke-linejoin="round" stroke-miterlimit="10" stroke-opacity="1" fill="#FFC000" fill-rule="nonzero" fill-opacity="1"/><path d="M3459.17 852.666C3459.17 858.741 3454.24 863.666 3448.17 863.666 3442.09 863.666 3437.17 858.741 3437.17 852.666 3437.17 846.591 3442.09 841.667 3448.17 841.667 3454.24 841.667 3459.17 846.591 3459.17 852.666Z" stroke="#FFC000" stroke-width="3.4375" stroke-linecap="butt" stroke-linejoin="round" stroke-miterlimit="10" stroke-opacity="1" fill="#FFC000" fill-rule="nonzero" fill-opacity="1"/></g><g clip-path="url(#clip11)"><text fill="#595959" fill-opacity="1" font-family="Calibri,Calibri_MSFontService,sans-serif" font-style="normal" font-variant="normal" font-weight="400" font-stretch="normal" font-size="41" text-anchor="start" direction="ltr" writing-mode="lr-tb" unicode-bidi="normal" text-decoration="none" transform="matrix(1 0 0 1 2308.26 1233)">0</text></g><g clip-path="url(#clip12)"><text fill="#595959" fill-opacity="1" font-family="Calibri,Calibri_MSFontService,sans-serif" font-style="normal" font-variant="normal" font-weight="400" font-stretch="normal" font-size="41" text-anchor="start" direction="ltr" writing-mode="lr-tb" unicode-bidi="normal" text-decoration="none" transform="matrix(1 0 0 1 2287.36 1066)">50</text></g><g clip-path="url(#clip13)"><text fill="#595959" fill-opacity="1" font-family="Calibri,Calibri_MSFontService,sans-serif" font-style="normal" font-variant="normal" font-weight="400" font-stretch="normal" font-size="41" text-anchor="start" direction="ltr" writing-mode="lr-tb" unicode-bidi="normal" text-decoration="none" transform="matrix(1 0 0 1 2266.46 900)">100</text></g><g clip-path="url(#clip14)"><text fill="#595959" fill-opacity="1" font-family="Calibri,Calibri_MSFontService,sans-serif" font-style="normal" font-variant="normal" font-weight="400" font-stretch="normal" font-size="41" text-anchor="start" direction="ltr" writing-mode="lr-tb" unicode-bidi="normal" text-decoration="none" transform="matrix(1 0 0 1 2266.46 733)">150</text></g><g clip-path="url(#clip15)"><text fill="#595959" fill-opacity="1" font-family="Calibri,Calibri_MSFontService,sans-serif" font-style="normal" font-variant="normal" font-weight="400" font-stretch="normal" font-size="41" text-anchor="start" direction="ltr" writing-mode="lr-tb" unicode-bidi="normal" text-decoration="none" transform="matrix(1 0 0 1 2266.46 566)">200</text></g><g clip-path="url(#clip16)"><text fill="#595959" fill-opacity="1" font-family="Calibri,Calibri_MSFontService,sans-serif" font-style="normal" font-variant="normal" font-weight="400" font-stretch="normal" font-size="41" text-anchor="start" direction="ltr" writing-mode="lr-tb" unicode-bidi="normal" text-decoration="none" transform="matrix(1 0 0 1 2266.46 400)">250</text></g><g clip-path="url(#clip17)"><text fill="#595959" fill-opacity="1" font-family="Calibri,Calibri_MSFontService,sans-serif" font-style="normal" font-variant="normal" font-weight="400" font-stretch="normal" font-size="41" text-anchor="start" direction="ltr" writing-mode="lr-tb" unicode-bidi="normal" text-decoration="none" transform="matrix(1 0 0 1 2387.12 1288)">Jan</text></g><g clip-path="url(#clip18)"><text fill="#595959" fill-opacity="1" font-family="Calibri,Calibri_MSFontService,sans-serif" font-style="normal" font-variant="normal" font-weight="400" font-stretch="normal" font-size="41" text-anchor="start" direction="ltr" writing-mode="lr-tb" unicode-bidi="normal" text-decoration="none" transform="matrix(1 0 0 1 2477.81 1288)">Feb</text></g><g clip-path="url(#clip19)"><text fill="#595959" fill-opacity="1" font-family="Calibri,Calibri_MSFontService,sans-serif" font-style="normal" font-variant="normal" font-weight="400" font-stretch="normal" font-size="41" text-anchor="start" direction="ltr" writing-mode="lr-tb" unicode-bidi="normal" text-decoration="none" transform="matrix(1 0 0 1 2567.66 1288)">Mar</text></g><g clip-path="url(#clip20)"><text fill="#595959" fill-opacity="1" font-family="Calibri,Calibri_MSFontService,sans-serif" font-style="normal" font-variant="normal" font-weight="400" font-stretch="normal" font-size="41" text-anchor="start" direction="ltr" writing-mode="lr-tb" unicode-bidi="normal" text-decoration="none" transform="matrix(1 0 0 1 2666.37 1288)">Apr</text></g><g clip-path="url(#clip21)"><text fill="#595959" fill-opacity="1" font-family="Calibri,Calibri_MSFontService,sans-serif" font-style="normal" font-variant="normal" font-weight="400" font-stretch="normal" font-size="41" text-anchor="start" direction="ltr" writing-mode="lr-tb" unicode-bidi="normal" text-decoration="none" transform="matrix(1 0 0 1 2753.47 1288)">May</text></g><g clip-path="url(#clip22)"><text fill="#595959" fill-opacity="1" font-family="Calibri,Calibri_MSFontService,sans-serif" font-style="normal" font-variant="normal" font-weight="400" font-stretch="normal" font-size="41" text-anchor="start" direction="ltr" writing-mode="lr-tb" unicode-bidi="normal" text-decoration="none" transform="matrix(1 0 0 1 2856.05 1288)">Jun</text></g><g clip-path="url(#clip23)"><text fill="#595959" fill-opacity="1" font-family="Calibri,Calibri_MSFontService,sans-serif" font-style="normal" font-variant="normal" font-weight="400" font-stretch="normal" font-size="41" text-anchor="start" direction="ltr" writing-mode="lr-tb" unicode-bidi="normal" text-decoration="none" transform="matrix(1 0 0 1 2956.13 1288)">Jul</text></g><g clip-path="url(#clip24)"><text fill="#595959" fill-opacity="1" font-family="Calibri,Calibri_MSFontService,sans-serif" font-style="normal" font-variant="normal" font-weight="400" font-stretch="normal" font-size="41" text-anchor="start" direction="ltr" writing-mode="lr-tb" unicode-bidi="normal" text-decoration="none" transform="matrix(1 0 0 1 3039.77 1288)">Aug</text></g><g clip-path="url(#clip25)"><text fill="#595959" fill-opacity="1" font-family="Calibri,Calibri_MSFontService,sans-serif" font-style="normal" font-variant="normal" font-weight="400" font-stretch="normal" font-size="41" text-anchor="start" direction="ltr" writing-mode="lr-tb" unicode-bidi="normal" text-decoration="none" transform="matrix(1 0 0 1 3135.65 1288)">Sep</text></g><g clip-path="url(#clip26)"><text fill="#595959" fill-opacity="1" font-family="Calibri,Calibri_MSFontService,sans-serif" font-style="normal" font-variant="normal" font-weight="400" font-stretch="normal" font-size="41" text-anchor="start" direction="ltr" writing-mode="lr-tb" unicode-bidi="normal" text-decoration="none" transform="matrix(1 0 0 1 3230.93 1288)">Oct</text></g><g clip-path="url(#clip27)"><text fill="#595959" fill-opacity="1" font-family="Calibri,Calibri_MSFontService,sans-serif" font-style="normal" font-variant="normal" font-weight="400" font-stretch="normal" font-size="41" text-anchor="start" direction="ltr" writing-mode="lr-tb" unicode-bidi="normal" text-decoration="none" transform="matrix(1 0 0 1 3320.69 1288)">Nov</text></g><g clip-path="url(#clip28)"><text fill="#595959" fill-opacity="1" font-family="Calibri,Calibri_MSFontService,sans-serif" font-style="normal" font-variant="normal" font-weight="400" font-stretch="normal" font-size="41" text-anchor="start" direction="ltr" writing-mode="lr-tb" unicode-bidi="normal" text-decoration="none" transform="matrix(1 0 0 1 3416.5 1288)">Dec</text></g><g clip-path="url(#clip29)"><path d="M3567 720 3655 720.001" stroke="#4472C4" stroke-width="10.3125" stroke-linecap="round" stroke-linejoin="round" stroke-miterlimit="10" stroke-opacity="1" fill="none" fill-rule="evenodd"/></g><g clip-path="url(#clip30)"><path d="M3621 719C3621 725.075 3616.07 729.999 3610 729.999 3603.92 729.999 3599 725.075 3599 719 3599 712.925 3603.92 708 3610 708 3616.07 708 3621 712.925 3621 719Z" stroke="#4472C4" stroke-width="3.4375" stroke-linecap="butt" stroke-linejoin="round" stroke-miterlimit="10" stroke-opacity="1" fill="#4472C4" fill-rule="nonzero" fill-opacity="1"/></g><g clip-path="url(#clip31)"><text fill="#595959" fill-opacity="1" font-family="Calibri,Calibri_MSFontService,sans-serif" font-style="normal" font-variant="normal" font-weight="400" font-stretch="normal" font-size="41" text-anchor="start" direction="ltr" writing-mode="lr-tb" unicode-bidi="normal" text-decoration="none" transform="matrix(1 0 0 1 3664.17 730)">canceled</text></g><g clip-path="url(#clip32)"><path d="M3567 797 3655 797.001" stroke="#ED7D31" stroke-width="10.3125" stroke-linecap="round" stroke-linejoin="round" stroke-miterlimit="10" stroke-opacity="1" fill="none" fill-rule="evenodd"/></g><g clip-path="url(#clip33)"><path d="M3621 797C3621 803.075 3616.07 807.999 3610 807.999 3603.92 807.999 3599 803.075 3599 797 3599 790.925 3603.92 786 3610 786 3616.07 786 3621 790.925 3621 797Z" stroke="#ED7D31" stroke-width="3.4375" stroke-linecap="butt" stroke-linejoin="round" stroke-miterlimit="10" stroke-opacity="1" fill="#ED7D31" fill-rule="nonzero" fill-opacity="1"/></g><g clip-path="url(#clip34)"><text fill="#595959" fill-opacity="1" font-family="Calibri,Calibri_MSFontService,sans-serif" font-style="normal" font-variant="normal" font-weight="400" font-stretch="normal" font-size="41" text-anchor="start" direction="ltr" writing-mode="lr-tb" unicode-bidi="normal" text-decoration="none" transform="matrix(1 0 0 1 3664.17 807)">failed</text></g><g clip-path="url(#clip35)"><path d="M3567 875 3655 875" stroke="#A5A5A5" stroke-width="10.3125" stroke-linecap="round" stroke-linejoin="round" stroke-miterlimit="10" stroke-opacity="1" fill="none" fill-rule="evenodd"/></g><g clip-path="url(#clip36)"><path d="M3621 874C3621 880.075 3616.07 884.999 3610 884.999 3603.92 884.999 3599 880.075 3599 874 3599 867.925 3603.92 863 3610 863 3616.07 863 3621 867.925 3621 874Z" stroke="#A5A5A5" stroke-width="3.4375" stroke-linecap="butt" stroke-linejoin="round" stroke-miterlimit="10" stroke-opacity="1" fill="#A5A5A5" fill-rule="nonzero" fill-opacity="1"/></g><g clip-path="url(#clip37)"><text fill="#595959" fill-opacity="1" font-family="Calibri,Calibri_MSFontService,sans-serif" font-style="normal" font-variant="normal" font-weight="400" font-stretch="normal" font-size="41" text-anchor="start" direction="ltr" writing-mode="lr-tb" unicode-bidi="normal" text-decoration="none" transform="matrix(1 0 0 1 3664.17 885)">live</text></g><g clip-path="url(#clip38)"><path d="M3567 952 3655 952" stroke="#FFC000" stroke-width="10.3125" stroke-linecap="round" stroke-linejoin="round" stroke-miterlimit="10" stroke-opacity="1" fill="none" fill-rule="evenodd"/></g><g clip-path="url(#clip39)"><path d="M3621 951C3621 957.075 3616.07 961.999 3610 961.999 3603.92 961.999 3599 957.075 3599 951 3599 944.925 3603.92 940 3610 940 3616.07 940 3621 944.925 3621 951Z" stroke="#FFC000" stroke-width="3.4375" stroke-linecap="butt" stroke-linejoin="round" stroke-miterlimit="10" stroke-opacity="1" fill="#FFC000" fill-rule="nonzero" fill-opacity="1"/></g><g clip-path="url(#clip40)"><text fill="#595959" fill-opacity="1" font-family="Calibri,Calibri_MSFontService,sans-serif" font-style="normal" font-variant="normal" font-weight="400" font-stretch="normal" font-size="41" text-anchor="start" direction="ltr" writing-mode="lr-tb" unicode-bidi="normal" text-decoration="none" transform="matrix(1 0 0 1 3664.17 962)">successful</text></g><rect x="2237.5" y="339.5" width="1650" height="990" stroke="#D9D9D9" stroke-width="3.4375" stroke-linecap="butt" stroke-linejoin="round" stroke-miterlimit="10" stroke-opacity="1" fill="none"/></g></svg>