<svg width="2668" height="1636" xmlns="http://www.w3.org/2000/svg" xmlns:xlink="http://www.w3.org/1999/xlink" overflow="hidden"><defs><clipPath id="clip0"><rect x="1915" y="137" width="2668" height="1636"/></clipPath><clipPath id="clip1"><rect x="1920" y="142" width="2658" height="1627"/></clipPath><clipPath id="clip2"><rect x="2072" y="312" width="2183" height="1354"/></clipPath><clipPath id="clip3"><rect x="2072" y="312" width="2183" height="1354"/></clipPath><clipPath id="clip4"><rect x="2072" y="312" width="2183" height="1354"/></clipPath><clipPath id="clip5"><rect x="2072" y="312" width="2183" height="1354"/></clipPath><clipPath id="clip6"><rect x="1920" y="142" width="2658" height="1627"/></clipPath><clipPath id="clip7"><rect x="1920" y="142" width="2658" height="1627"/></clipPath><clipPath id="clip8"><rect x="1920" y="142" width="2658" height="1627"/></clipPath><clipPath id="clip9"><rect x="1920" y="142" width="2658" height="1627"/></clipPath><clipPath id="clip10"><rect x="1920" y="142" width="2658" height="1627"/></clipPath><clipPath id="clip11"><rect x="1920" y="142" width="2658" height="1627"/></clipPath><clipPath id="clip12"><rect x="1920" y="142" width="2658" height="1627"/></clipPath><clipPath id="clip13"><rect x="1920" y="142" width="2658" height="1627"/></clipPath><clipPath id="clip14"><rect x="1920" y="142" width="2658" height="1627"/></clipPath><clipPath id="clip15"><rect x="1920" y="142" width="2658" height="1627"/></clipPath><clipPath id="clip16"><rect x="1920" y="142" width="2658" height="1627"/></clipPath><clipPath id="clip17"><rect x="1920" y="142" width="2658" height="1627"/></clipPath><clipPath id="clip18"><rect x="1920" y="142" width="2658" height="1627"/></clipPath><clipPath id="clip19"><rect x="1920" y="142" width="2658" height="1627"/></clipPath><clipPath id="clip20"><rect x="1920" y="142" width="2658" height="1627"/></clipPath><clipPath id="clip21"><rect x="1920" y="142" width="2658" height="1627"/></clipPath><clipPath id="clip22"><rect x="1920" y="142" width="2658" height="1627"/></clipPath><clipPath id="clip23"><rect x="1920" y="142" width="2658" height="1627"/></clipPath><clipPath id="clip24"><rect x="1920" y="142" width="2658" height="1627"/></clipPath><clipPath id="clip25"><rect x="1920" y="142" width="2658" height="1627"/></clipPath><clipPath id="clip26"><rect x="1920" y="142" width="2658" height="1627"/></clipPath><clipPath id="clip27"><rect x="1920" y="142" width="2658" height="1627"/></clipPath><clipPath id="clip28"><rect x="1920" y="142" width="2658" height="1627"/></clipPath><clipPath id="clip29"><rect x="1920" y="142" width="2658" height="1627"/></clipPath><clipPath id="clip30"><rect x="1920" y="142" width="2658" height="1627"/></clipPath><clipPath id="clip31"><rect x="1920" y="142" width="2658" height="1627"/></clipPath><clipPath id="clip32"><rect x="1920" y="142" width="2658" height="1627"/></clipPath><clipPath id="clip33"><rect x="1920" y="142" width="2658" height="1627"/></clipPath></defs><g clip-path="url(#clip0)" transform="translate(-1915 -137)"><rect x="1920" y="142" width="2659" height="1627" fill="#FFFFFF" fill-opacity="1"/><g clip-path="url(#clip1)"><path d="M2072.5 1493.55 4251.5 1493.55M2072.5 1325.54 4251.5 1325.54M2072.5 1156.54 4251.5 1156.54M2072.5 987.533 4251.5 987.533M2072.5 818.527 4251.5 818.527M2072.5 649.521 4251.5 649.521M2072.5 480.516 4251.5 480.516M2072.5 312.5 4251.5 312.5" stroke="#D9D9D9" stroke-width="3.4375" stroke-linecap="butt" stroke-linejoin="round" stroke-miterlimit="10" stroke-opacity="1" fill="none" fill-rule="nonzero"/></g><g clip-path="url(#clip2)"><path d="M2155.07 1629.05 2231.07 1629.05 2231.07 1663 2155.07 1663ZM2397.08 1646.05 2473.08 1646.05 2473.08 1663 2397.08 1663ZM2882.09 1643.05 2958.1 1643.05 2958.1 1663 2882.09 1663ZM3124.1 1646.05 3200.1 1646.05 3200.1 1663 3124.1 1663ZM3608.12 1637.05 3684.12 1637.05 3684.12 1663 3608.12 1663ZM3851.13 1513.05 3926.13 1513.05 3926.13 1663 3851.13 1663ZM4093.13 1632.05 4169.14 1632.05 4169.14 1663 4093.13 1663Z" fill="#4472C4" fill-rule="nonzero" fill-opacity="1"/></g><g clip-path="url(#clip3)"><path d="M2155.07 1477.05 2231.07 1477.05 2231.07 1629.05 2155.07 1629.05ZM2397.08 1528.05 2473.08 1528.05 2473.08 1646.05 2397.08 1646.05ZM2640.09 1545.05 2715.09 1545.05 2715.09 1663 2640.09 1663ZM3124.1 1545.05 3200.1 1545.05 3200.1 1646.05 3124.1 1646.05ZM3366.11 1564.05 3442.11 1564.05 3442.11 1663 3366.11 1663ZM3608.12 1530.05 3684.12 1530.05 3684.12 1637.05 3608.12 1637.05ZM3851.13 1333.04 3926.13 1333.04 3926.13 1513.05 3851.13 1513.05ZM4093.13 1215.04 4169.14 1215.04 4169.14 1632.05 4093.13 1632.05Z" fill="#ED7D31" fill-rule="nonzero" fill-opacity="1"/></g><g clip-path="url(#clip4)"><path d="M2397.08 1523.05 2473.08 1523.05 2473.08 1528.05 2397.08 1528.05ZM3124.1 1528.05 3200.1 1528.05 3200.1 1545.05 3124.1 1545.05ZM4093.13 1195.04 4169.14 1195.04 4169.14 1215.04 4093.13 1215.04Z" fill="#A5A5A5" fill-rule="nonzero" fill-opacity="1"/></g><g clip-path="url(#clip5)"><path d="M2155.07 1224.04 2231.07 1224.04 2231.07 1477.05 2155.07 1477.05ZM2397.08 1494.05 2473.08 1494.05 2473.08 1523.05 2397.08 1523.05ZM2640.09 1477.05 2715.09 1477.05 2715.09 1545.05 2640.09 1545.05ZM3124.1 1072.04 3200.1 1072.04 3200.1 1528.05 3124.1 1528.05ZM3366.11 1477.05 3442.11 1477.05 3442.11 1564.05 3366.11 1564.05ZM3608.12 1463.05 3684.12 1463.05 3684.12 1530.05 3608.12 1530.05ZM3851.13 1156.04 3926.13 1156.04 3926.13 1333.04 3851.13 1333.04ZM4093.13 487.016 4169.14 487.016 4169.14 1195.04 4093.13 1195.04Z" fill="#FFC000" fill-rule="nonzero" fill-opacity="1"/></g><g clip-path="url(#clip6)"><path d="M2072.5 1662.5 4251.5 1662.5" stroke="#D9D9D9" stroke-width="3.4375" stroke-linecap="butt" stroke-linejoin="round" stroke-miterlimit="10" stroke-opacity="1" fill="none" fill-rule="evenodd"/></g><g clip-path="url(#clip7)"><text fill="#595959" fill-opacity="1" font-family="Calibri,Calibri_MSFontService,sans-serif" font-style="normal" font-variant="normal" font-weight="400" font-stretch="normal" font-size="41" text-anchor="start" direction="ltr" writing-mode="lr-tb" unicode-bidi="normal" text-decoration="none" transform="matrix(1 0 0 1 2012.91 1673)">0</text></g><g clip-path="url(#clip8)"><text fill="#595959" fill-opacity="1" font-family="Calibri,Calibri_MSFontService,sans-serif" font-style="normal" font-variant="normal" font-weight="400" font-stretch="normal" font-size="41" text-anchor="start" direction="ltr" writing-mode="lr-tb" unicode-bidi="normal" text-decoration="none" transform="matrix(1 0 0 1 1971.11 1504)">200</text></g><g clip-path="url(#clip9)"><text fill="#595959" fill-opacity="1" font-family="Calibri,Calibri_MSFontService,sans-serif" font-style="normal" font-variant="normal" font-weight="400" font-stretch="normal" font-size="41" text-anchor="start" direction="ltr" writing-mode="lr-tb" unicode-bidi="normal" text-decoration="none" transform="matrix(1 0 0 1 1971.11 1335)">400</text></g><g clip-path="url(#clip10)"><text fill="#595959" fill-opacity="1" font-family="Calibri,Calibri_MSFontService,sans-serif" font-style="normal" font-variant="normal" font-weight="400" font-stretch="normal" font-size="41" text-anchor="start" direction="ltr" writing-mode="lr-tb" unicode-bidi="normal" text-decoration="none" transform="matrix(1 0 0 1 1971.11 1166)">600</text></g><g clip-path="url(#clip11)"><text fill="#595959" fill-opacity="1" font-family="Calibri,Calibri_MSFontService,sans-serif" font-style="normal" font-variant="normal" font-weight="400" font-stretch="normal" font-size="41" text-anchor="start" direction="ltr" writing-mode="lr-tb" unicode-bidi="normal" text-decoration="none" transform="matrix(1 0 0 1 1971.11 998)">800</text></g><g clip-path="url(#clip12)"><text fill="#595959" fill-opacity="1" font-family="Calibri,Calibri_MSFontService,sans-serif" font-style="normal" font-variant="normal" font-weight="400" font-stretch="normal" font-size="41" text-anchor="start" direction="ltr" writing-mode="lr-tb" unicode-bidi="normal" text-decoration="none" transform="matrix(1 0 0 1 1950.21 829)">1000</text></g><g clip-path="url(#clip13)"><text fill="#595959" fill-opacity="1" font-family="Calibri,Calibri_MSFontService,sans-serif" font-style="normal" font-variant="normal" font-weight="400" font-stretch="normal" font-size="41" text-anchor="start" direction="ltr" writing-mode="lr-tb" unicode-bidi="normal" text-decoration="none" transform="matrix(1 0 0 1 1950.21 660)">1200</text></g><g clip-path="url(#clip14)"><text fill="#595959" fill-opacity="1" font-family="Calibri,Calibri_MSFontService,sans-serif" font-style="normal" font-variant="normal" font-weight="400" font-stretch="normal" font-size="41" text-anchor="start" direction="ltr" writing-mode="lr-tb" unicode-bidi="normal" text-decoration="none" transform="matrix(1 0 0 1 1950.21 491)">1400</text></g><g clip-path="url(#clip15)"><text fill="#595959" fill-opacity="1" font-family="Calibri,Calibri_MSFontService,sans-serif" font-style="normal" font-variant="normal" font-weight="400" font-stretch="normal" font-size="41" text-anchor="start" direction="ltr" writing-mode="lr-tb" unicode-bidi="normal" text-decoration="none" transform="matrix(1 0 0 1 1950.21 322)">1600</text></g><g clip-path="url(#clip16)"><text fill="#595959" fill-opacity="1" font-family="Calibri,Calibri_MSFontService,sans-serif" font-style="normal" font-variant="normal" font-weight="400" font-stretch="normal" font-size="41" text-anchor="start" direction="ltr" writing-mode="lr-tb" unicode-bidi="normal" text-decoration="none" transform="matrix(1 0 0 1 2091.52 1728)">film &amp; video</text></g><g clip-path="url(#clip17)"><text fill="#595959" fill-opacity="1" font-family="Calibri,Calibri_MSFontService,sans-serif" font-style="normal" font-variant="normal" font-weight="400" font-stretch="normal" font-size="41" text-anchor="start" direction="ltr" writing-mode="lr-tb" unicode-bidi="normal" text-decoration="none" transform="matrix(1 0 0 1 2396.51 1728)">food</text></g><g clip-path="url(#clip18)"><text fill="#595959" fill-opacity="1" font-family="Calibri,Calibri_MSFontService,sans-serif" font-style="normal" font-variant="normal" font-weight="400" font-stretch="normal" font-size="41" text-anchor="start" direction="ltr" writing-mode="lr-tb" unicode-bidi="normal" text-decoration="none" transform="matrix(1 0 0 1 2623.2 1728)">games</text></g><g clip-path="url(#clip19)"><text fill="#595959" fill-opacity="1" font-family="Calibri,Calibri_MSFontService,sans-serif" font-style="normal" font-variant="normal" font-weight="400" font-stretch="normal" font-size="41" text-anchor="start" direction="ltr" writing-mode="lr-tb" unicode-bidi="normal" text-decoration="none" transform="matrix(1 0 0 1 2831.22 1728)">journalism</text></g><g clip-path="url(#clip20)"><text fill="#595959" fill-opacity="1" font-family="Calibri,Calibri_MSFontService,sans-serif" font-style="normal" font-variant="normal" font-weight="400" font-stretch="normal" font-size="41" text-anchor="start" direction="ltr" writing-mode="lr-tb" unicode-bidi="normal" text-decoration="none" transform="matrix(1 0 0 1 3113.17 1728)">music</text></g><g clip-path="url(#clip21)"><text fill="#595959" fill-opacity="1" font-family="Calibri,Calibri_MSFontService,sans-serif" font-style="normal" font-variant="normal" font-weight="400" font-stretch="normal" font-size="41" text-anchor="start" direction="ltr" writing-mode="lr-tb" unicode-bidi="normal" text-decoration="none" transform="matrix(1 0 0 1 3296.07 1728)">photography</text></g><g clip-path="url(#clip22)"><text fill="#595959" fill-opacity="1" font-family="Calibri,Calibri_MSFontService,sans-serif" font-style="normal" font-variant="normal" font-weight="400" font-stretch="normal" font-size="41" text-anchor="start" direction="ltr" writing-mode="lr-tb" unicode-bidi="normal" text-decoration="none" transform="matrix(1 0 0 1 3560.25 1728)">publishing</text></g><g clip-path="url(#clip23)"><text fill="#595959" fill-opacity="1" font-family="Calibri,Calibri_MSFontService,sans-serif" font-style="normal" font-variant="normal" font-weight="400" font-stretch="normal" font-size="41" text-anchor="start" direction="ltr" writing-mode="lr-tb" unicode-bidi="normal" text-decoration="none" transform="matrix(1 0 0 1 3795.52 1728)">technology</text></g><g clip-path="url(#clip24)"><text fill="#595959" fill-opacity="1" font-family="Calibri,Calibri_MSFontService,sans-serif" font-style="normal" font-variant="normal" font-weight="400" font-stretch="normal" font-size="41" text-anchor="start" direction="ltr" writing-mode="lr-tb" unicode-bidi="normal" text-decoration="none" transform="matrix(1 0 0 1 4068.56 1728)">theater</text></g><g clip-path="url(#clip25)"><text fill="#595959" fill-opacity="1" font-family="Calibri,Calibri_MSFontService,sans-serif" font-style="normal" font-variant="normal" font-weight="400" font-stretch="normal" font-size="64" text-anchor="start" direction="ltr" writing-mode="lr-tb" unicode-bidi="normal" text-decoration="none" transform="matrix(1 0 0 1 2913.32 237)">Parent Category Outcome</text></g><g clip-path="url(#clip26)"><rect x="4324" y="890" width="23" height="22" fill="#FFC000" fill-opacity="1"/></g><g clip-path="url(#clip27)"><text fill="#595959" fill-opacity="1" font-family="Calibri,Calibri_MSFontService,sans-serif" font-style="normal" font-variant="normal" font-weight="400" font-stretch="normal" font-size="41" text-anchor="start" direction="ltr" writing-mode="lr-tb" unicode-bidi="normal" text-decoration="none" transform="matrix(1 0 0 1 4356.25 911)">successful</text></g><g clip-path="url(#clip28)"><rect x="4324" y="967" width="23" height="23.0001" fill="#A5A5A5" fill-opacity="1"/></g><g clip-path="url(#clip29)"><text fill="#595959" fill-opacity="1" font-family="Calibri,Calibri_MSFontService,sans-serif" font-style="normal" font-variant="normal" font-weight="400" font-stretch="normal" font-size="41" text-anchor="start" direction="ltr" writing-mode="lr-tb" unicode-bidi="normal" text-decoration="none" transform="matrix(1 0 0 1 4356.25 989)">live</text></g><g clip-path="url(#clip30)"><rect x="4324" y="1044" width="23" height="23" fill="#ED7D31" fill-opacity="1"/></g><g clip-path="url(#clip31)"><text fill="#595959" fill-opacity="1" font-family="Calibri,Calibri_MSFontService,sans-serif" font-style="normal" font-variant="normal" font-weight="400" font-stretch="normal" font-size="41" text-anchor="start" direction="ltr" writing-mode="lr-tb" unicode-bidi="normal" text-decoration="none" transform="matrix(1 0 0 1 4356.25 1066)">failed</text></g><g clip-path="url(#clip32)"><rect x="4324" y="1122" width="23" height="22" fill="#4472C4" fill-opacity="1"/></g><g clip-path="url(#clip33)"><text fill="#595959" fill-opacity="1" font-family="Calibri,Calibri_MSFontService,sans-serif" font-style="normal" font-variant="normal" font-weight="400" font-stretch="normal" font-size="41" text-anchor="start" direction="ltr" writing-mode="lr-tb" unicode-bidi="normal" text-decoration="none" transform="matrix(1 0 0 1 4356.25 1143)">canceled</text></g><rect x="1920.5" y="142.5" width="2659" height="1627" stroke="#D9D9D9" stroke-width="3.4375" stroke-linecap="butt" stroke-linejoin="round" stroke-miterlimit="10" stroke-opacity="1" fill="none"/></g></svg>