<svg width="2539" height="1715" xmlns="http://www.w3.org/2000/svg" xmlns:xlink="http://www.w3.org/1999/xlink" overflow="hidden"><defs><clipPath id="clip0"><rect x="1755" y="100" width="2539" height="1715"/></clipPath><clipPath id="clip1"><rect x="1760" y="105" width="2530" height="1705"/></clipPath><clipPath id="clip2"><rect x="1911" y="155" width="2046" height="1357"/></clipPath><clipPath id="clip3"><rect x="1911" y="155" width="2046" height="1357"/></clipPath><clipPath id="clip4"><rect x="1911" y="155" width="2046" height="1357"/></clipPath><clipPath id="clip5"><rect x="1911" y="155" width="2046" height="1357"/></clipPath><clipPath id="clip6"><rect x="1760" y="105" width="2530" height="1705"/></clipPath><clipPath id="clip7"><rect x="1760" y="105" width="2530" height="1705"/></clipPath><clipPath id="clip8"><rect x="1760" y="105" width="2530" height="1705"/></clipPath><clipPath id="clip9"><rect x="1760" y="105" width="2530" height="1705"/></clipPath><clipPath id="clip10"><rect x="1760" y="105" width="2530" height="1705"/></clipPath><clipPath id="clip11"><rect x="1760" y="105" width="2530" height="1705"/></clipPath><clipPath id="clip12"><rect x="1760" y="105" width="2530" height="1705"/></clipPath><clipPath id="clip13"><rect x="1760" y="105" width="2530" height="1705"/></clipPath><clipPath id="clip14"><rect x="1760" y="105" width="2530" height="1705"/></clipPath><clipPath id="clip15"><rect x="1760" y="105" width="2530" height="1705"/></clipPath><clipPath id="clip16"><rect x="1760" y="105" width="2530" height="1705"/></clipPath><clipPath id="clip17"><rect x="1760" y="105" width="2530" height="1705"/></clipPath><clipPath id="clip18"><rect x="1760" y="105" width="2530" height="1705"/></clipPath><clipPath id="clip19"><rect x="1760" y="105" width="2530" height="1705"/></clipPath><clipPath id="clip20"><rect x="1760" y="105" width="2530" height="1705"/></clipPath><clipPath id="clip21"><rect x="1760" y="105" width="2530" height="1705"/></clipPath><clipPath id="clip22"><rect x="1760" y="105" width="2530" height="1705"/></clipPath><clipPath id="clip23"><rect x="1760" y="105" width="2530" height="1705"/></clipPath><clipPath id="clip24"><rect x="1760" y="105" width="2530" height="1705"/></clipPath><clipPath id="clip25"><rect x="1760" y="105" width="2530" height="1705"/></clipPath><clipPath id="clip26"><rect x="1760" y="105" width="2530" height="1705"/></clipPath><clipPath id="clip27"><rect x="1760" y="105" width="2530" height="1705"/></clipPath><clipPath id="clip28"><rect x="1760" y="105" width="2530" height="1705"/></clipPath><clipPath id="clip29"><rect x="1760" y="105" width="2530" height="1705"/></clipPath><clipPath id="clip30"><rect x="1760" y="105" width="2530" height="1705"/></clipPath><clipPath id="clip31"><rect x="1760" y="105" width="2530" height="1705"/></clipPath><clipPath id="clip32"><rect x="1760" y="105" width="2530" height="1705"/></clipPath><clipPath id="clip33"><rect x="1760" y="105" width="2530" height="1705"/></clipPath><clipPath id="clip34"><rect x="1760" y="105" width="2530" height="1705"/></clipPath><clipPath id="clip35"><rect x="1760" y="105" width="2530" height="1705"/></clipPath><clipPath id="clip36"><rect x="1760" y="105" width="2530" height="1705"/></clipPath><clipPath id="clip37"><rect x="1760" y="105" width="2530" height="1705"/></clipPath><clipPath id="clip38"><rect x="1760" y="105" width="2530" height="1705"/></clipPath><clipPath id="clip39"><rect x="1760" y="105" width="2530" height="1705"/></clipPath><clipPath id="clip40"><rect x="1760" y="105" width="2530" height="1705"/></clipPath><clipPath id="clip41"><rect x="1760" y="105" width="2530" height="1705"/></clipPath><clipPath id="clip42"><rect x="1760" y="105" width="2530" height="1705"/></clipPath></defs><g clip-path="url(#clip0)" transform="translate(-1755 -100)"><rect x="1760" y="105" width="2530" height="1705" fill="#FFFFFF" fill-opacity="1"/><g clip-path="url(#clip1)"><path d="M1911.5 1283.54 3954.5 1283.54M1911.5 1057.53 3954.5 1057.53M1911.5 832.527 3954.5 832.527M1911.5 606.52 3954.5 606.52M1911.5 381.513 3954.5 381.513M1911.5 155.5 3954.5 155.5" stroke="#D9D9D9" stroke-width="3.4375" stroke-linecap="butt" stroke-linejoin="round" stroke-miterlimit="10" stroke-opacity="1" fill="none" fill-rule="nonzero"/></g><g clip-path="url(#clip2)"><path d="M1979.06 1486.05 1994.07 1486.05 1994.07 1509 1979.06 1509ZM2028.07 1482.05 2044.07 1482.05 2044.07 1509 2028.07 1509ZM2427.08 1486.05 2443.08 1486.05 2443.08 1509 2427.08 1509ZM2826.09 1486.05 2841.09 1486.05 2841.09 1509 2826.09 1509ZM3374.11 1464.05 3389.11 1464.05 3389.11 1509 3374.11 1509ZM3523.12 1488.05 3539.12 1488.05 3539.12 1509 3523.12 1509ZM3573.12 1490.05 3589.12 1490.05 3589.12 1509 3573.12 1509ZM3722.12 1497.05 3738.12 1497.05 3738.12 1509 3722.12 1509ZM3822.13 1441.05 3838.13 1441.05 3838.13 1509 3822.13 1509ZM3872.13 1396.05 3887.13 1396.05 3887.13 1509 3872.13 1509ZM3922.13 1486.05 3937.13 1486.05 3937.13 1509 3922.13 1509Z" fill="#4472C4" fill-rule="nonzero" fill-opacity="1"/></g><g clip-path="url(#clip3)"><path d="M1929.06 1396.05 1944.06 1396.05 1944.06 1509 1929.06 1509ZM2078.07 1464.05 2094.07 1464.05 2094.07 1509 2078.07 1509ZM2228.07 1419.05 2243.07 1419.05 2243.07 1509 2228.07 1509ZM2327.08 1464.05 2343.08 1464.05 2343.08 1509 2327.08 1509ZM2377.08 1464.05 2393.08 1464.05 2393.08 1509 2377.08 1509ZM2427.08 1351.04 2443.08 1351.04 2443.08 1486.05 2427.08 1486.05ZM2477.08 1486.05 2492.08 1486.05 2492.08 1509 2477.08 1509ZM2576.08 1486.05 2592.08 1486.05 2592.08 1509 2576.08 1509ZM2626.09 1441.05 2642.09 1441.05 2642.09 1509 2626.09 1509ZM2676.09 1496.05 2692.09 1496.05 2692.09 1509 2676.09 1509ZM2776.09 1464.05 2791.09 1464.05 2791.09 1509 2776.09 1509ZM2826.09 1419.05 2841.09 1419.05 2841.09 1486.05 2826.09 1486.05ZM2875.09 1486.05 2891.09 1486.05 2891.09 1509 2875.09 1509ZM2975.1 1486.05 2991.1 1486.05 2991.1 1509 2975.1 1509ZM3025.1 1444.05 3040.1 1444.05 3040.1 1509 3025.1 1509ZM3075.1 1486.05 3090.1 1486.05 3090.1 1509 3075.1 1509ZM3124.1 1111.04 3140.1 1111.04 3140.1 1509 3124.1 1509ZM3274.11 1486.05 3290.11 1486.05 3290.11 1509 3274.11 1509ZM3523.12 1486.05 3539.12 1486.05 3539.12 1488.05 3523.12 1488.05ZM3573.12 1399.05 3589.12 1399.05 3589.12 1490.05 3573.12 1490.05ZM3722.12 1444.05 3738.12 1444.05 3738.12 1497.05 3722.12 1497.05ZM3772.12 1396.05 3788.12 1396.05 3788.12 1509 3772.12 1509ZM3822.13 1306.04 3838.13 1306.04 3838.13 1441.05 3822.13 1441.05ZM3872.13 1328.04 3887.13 1328.04 3887.13 1396.05 3872.13 1396.05Z" fill="#ED7D31" fill-rule="nonzero" fill-opacity="1"/></g><g clip-path="url(#clip4)"><path d="M2327.08 1441.05 2343.08 1441.05 2343.08 1464.05 2327.08 1464.05ZM3124.1 1089.04 3140.1 1089.04 3140.1 1111.04 3124.1 1111.04ZM3473.11 1502.05 3489.11 1502.05 3489.11 1509 3473.11 1509ZM3573.12 1394.05 3589.12 1394.05 3589.12 1399.05 3573.12 1399.05Z" fill="#A5A5A5" fill-rule="nonzero" fill-opacity="1"/></g><g clip-path="url(#clip5)"><path d="M2128.07 1464.05 2144.07 1464.05 2144.07 1509 2128.07 1509ZM2178.07 1306.04 2193.07 1306.04 2193.07 1509 2178.07 1509ZM2277.07 1464.05 2293.08 1464.05 2293.08 1509 2277.07 1509ZM2527.08 1351.04 2542.08 1351.04 2542.08 1509 2527.08 1509ZM2576.08 1328.04 2592.08 1328.04 2592.08 1486.05 2576.08 1486.05ZM2676.09 1486.05 2692.09 1486.05 2692.09 1496.05 2676.09 1496.05ZM2726.09 1486.05 2741.09 1486.05 2741.09 1509 2726.09 1509ZM2826.09 1351.04 2841.09 1351.04 2841.09 1419.05 2826.09 1419.05ZM2925.1 1441.05 2941.1 1441.05 2941.1 1509 2925.1 1509ZM3025.1 1328.04 3040.1 1328.04 3040.1 1444.05 3025.1 1444.05ZM3124.1 307.01 3140.1 307.01 3140.1 1089.04 3124.1 1089.04ZM3174.1 1464.05 3190.1 1464.05 3190.1 1509 3174.1 1509ZM3224.11 1486.05 3240.11 1486.05 3240.11 1509 3224.11 1509ZM3324.11 1216.04 3339.11 1216.04 3339.11 1509 3324.11 1509ZM3423.11 1441.05 3439.11 1441.05 3439.11 1509 3423.11 1509ZM3473.11 1464.05 3489.11 1464.05 3489.11 1502.05 3473.11 1502.05ZM3523.12 1441.05 3539.12 1441.05 3539.12 1486.05 3523.12 1486.05ZM3573.12 1298.04 3589.12 1298.04 3589.12 1394.05 3573.12 1394.05ZM3623.12 1419.05 3638.12 1419.05 3638.12 1509 3623.12 1509ZM3673.12 1441.05 3688.12 1441.05 3688.12 1509 3673.12 1509ZM3822.13 1283.04 3838.13 1283.04 3838.13 1306.04 3822.13 1306.04Z" fill="#FFC000" fill-rule="nonzero" fill-opacity="1"/></g><g clip-path="url(#clip6)"><path d="M1911.5 1508.5 3954.5 1508.5" stroke="#D9D9D9" stroke-width="3.4375" stroke-linecap="butt" stroke-linejoin="round" stroke-miterlimit="10" stroke-opacity="1" fill="none" fill-rule="evenodd"/></g><g clip-path="url(#clip7)"><text fill="#595959" fill-opacity="1" font-family="Calibri,Calibri_MSFontService,sans-serif" font-style="normal" font-variant="normal" font-weight="400" font-stretch="normal" font-size="41" text-anchor="start" direction="ltr" writing-mode="lr-tb" unicode-bidi="normal" text-decoration="none" transform="matrix(1 0 0 1 1852.49 1519)">0</text></g><g clip-path="url(#clip8)"><text fill="#595959" fill-opacity="1" font-family="Calibri,Calibri_MSFontService,sans-serif" font-style="normal" font-variant="normal" font-weight="400" font-stretch="normal" font-size="41" text-anchor="start" direction="ltr" writing-mode="lr-tb" unicode-bidi="normal" text-decoration="none" transform="matrix(1 0 0 1 1810.69 1293)">200</text></g><g clip-path="url(#clip9)"><text fill="#595959" fill-opacity="1" font-family="Calibri,Calibri_MSFontService,sans-serif" font-style="normal" font-variant="normal" font-weight="400" font-stretch="normal" font-size="41" text-anchor="start" direction="ltr" writing-mode="lr-tb" unicode-bidi="normal" text-decoration="none" transform="matrix(1 0 0 1 1810.69 1068)">400</text></g><g clip-path="url(#clip10)"><text fill="#595959" fill-opacity="1" font-family="Calibri,Calibri_MSFontService,sans-serif" font-style="normal" font-variant="normal" font-weight="400" font-stretch="normal" font-size="41" text-anchor="start" direction="ltr" writing-mode="lr-tb" unicode-bidi="normal" text-decoration="none" transform="matrix(1 0 0 1 1810.69 842)">600</text></g><g clip-path="url(#clip11)"><text fill="#595959" fill-opacity="1" font-family="Calibri,Calibri_MSFontService,sans-serif" font-style="normal" font-variant="normal" font-weight="400" font-stretch="normal" font-size="41" text-anchor="start" direction="ltr" writing-mode="lr-tb" unicode-bidi="normal" text-decoration="none" transform="matrix(1 0 0 1 1810.69 617)">800</text></g><g clip-path="url(#clip12)"><text fill="#595959" fill-opacity="1" font-family="Calibri,Calibri_MSFontService,sans-serif" font-style="normal" font-variant="normal" font-weight="400" font-stretch="normal" font-size="41" text-anchor="start" direction="ltr" writing-mode="lr-tb" unicode-bidi="normal" text-decoration="none" transform="matrix(1 0 0 1 1789.79 391)">1000</text></g><g clip-path="url(#clip13)"><text fill="#595959" fill-opacity="1" font-family="Calibri,Calibri_MSFontService,sans-serif" font-style="normal" font-variant="normal" font-weight="400" font-stretch="normal" font-size="41" text-anchor="start" direction="ltr" writing-mode="lr-tb" unicode-bidi="normal" text-decoration="none" transform="matrix(1 0 0 1 1789.79 166)">1200</text></g><g clip-path="url(#clip14)"><text fill="#595959" fill-opacity="1" font-family="Calibri,Calibri_MSFontService,sans-serif" font-style="normal" font-variant="normal" font-weight="400" font-stretch="normal" font-size="41" text-anchor="start" direction="ltr" writing-mode="lr-tb" unicode-bidi="normal" text-decoration="none" transform="matrix(0.707107 -0.707107 0.707107 0.707107 1825.92 1683)">animation</text></g><g clip-path="url(#clip15)"><text fill="#595959" fill-opacity="1" font-family="Calibri,Calibri_MSFontService,sans-serif" font-style="normal" font-variant="normal" font-weight="400" font-stretch="normal" font-size="41" text-anchor="start" direction="ltr" writing-mode="lr-tb" unicode-bidi="normal" text-decoration="none" transform="matrix(0.707107 -0.707107 0.707107 0.707107 1979.3 1629)">audio</text></g><g clip-path="url(#clip16)"><text fill="#595959" fill-opacity="1" font-family="Calibri,Calibri_MSFontService,sans-serif" font-style="normal" font-variant="normal" font-weight="400" font-stretch="normal" font-size="41" text-anchor="start" direction="ltr" writing-mode="lr-tb" unicode-bidi="normal" text-decoration="none" transform="matrix(0.707107 -0.707107 0.707107 0.707107 1974.5 1734)">classical music</text></g><g clip-path="url(#clip17)"><text fill="#595959" fill-opacity="1" font-family="Calibri,Calibri_MSFontService,sans-serif" font-style="normal" font-variant="normal" font-weight="400" font-stretch="normal" font-size="41" text-anchor="start" direction="ltr" writing-mode="lr-tb" unicode-bidi="normal" text-decoration="none" transform="matrix(0.707107 -0.707107 0.707107 0.707107 2168.56 1639)">drama</text></g><g clip-path="url(#clip18)"><text fill="#595959" fill-opacity="1" font-family="Calibri,Calibri_MSFontService,sans-serif" font-style="normal" font-variant="normal" font-weight="400" font-stretch="normal" font-size="41" text-anchor="start" direction="ltr" writing-mode="lr-tb" unicode-bidi="normal" text-decoration="none" transform="matrix(0.707107 -0.707107 0.707107 0.707107 2290.29 1617)">faith</text></g><g clip-path="url(#clip19)"><text fill="#595959" fill-opacity="1" font-family="Calibri,Calibri_MSFontService,sans-serif" font-style="normal" font-variant="normal" font-weight="400" font-stretch="normal" font-size="41" text-anchor="start" direction="ltr" writing-mode="lr-tb" unicode-bidi="normal" text-decoration="none" transform="matrix(0.707107 -0.707107 0.707107 0.707107 2310.75 1696)">food trucks</text></g><g clip-path="url(#clip20)"><text fill="#595959" fill-opacity="1" font-family="Calibri,Calibri_MSFontService,sans-serif" font-style="normal" font-variant="normal" font-weight="400" font-stretch="normal" font-size="41" text-anchor="start" direction="ltr" writing-mode="lr-tb" unicode-bidi="normal" text-decoration="none" transform="matrix(0.707107 -0.707107 0.707107 0.707107 2429.93 1677)">hardware</text></g><g clip-path="url(#clip21)"><text fill="#595959" fill-opacity="1" font-family="Calibri,Calibri_MSFontService,sans-serif" font-style="normal" font-variant="normal" font-weight="400" font-stretch="normal" font-size="41" text-anchor="start" direction="ltr" writing-mode="lr-tb" unicode-bidi="normal" text-decoration="none" transform="matrix(0.707107 -0.707107 0.707107 0.707107 2599.91 1607)">jazz</text></g><g clip-path="url(#clip22)"><text fill="#595959" fill-opacity="1" font-family="Calibri,Calibri_MSFontService,sans-serif" font-style="normal" font-variant="normal" font-weight="400" font-stretch="normal" font-size="41" text-anchor="start" direction="ltr" writing-mode="lr-tb" unicode-bidi="normal" text-decoration="none" transform="matrix(0.707107 -0.707107 0.707107 0.707107 2675.3 1631)">metal</text></g><g clip-path="url(#clip23)"><text fill="#595959" fill-opacity="1" font-family="Calibri,Calibri_MSFontService,sans-serif" font-style="normal" font-variant="normal" font-weight="400" font-stretch="normal" font-size="41" text-anchor="start" direction="ltr" writing-mode="lr-tb" unicode-bidi="normal" text-decoration="none" transform="matrix(0.707107 -0.707107 0.707107 0.707107 2753.48 1652)">musical</text></g><g clip-path="url(#clip24)"><text fill="#595959" fill-opacity="1" font-family="Calibri,Calibri_MSFontService,sans-serif" font-style="normal" font-variant="normal" font-weight="400" font-stretch="normal" font-size="41" text-anchor="start" direction="ltr" writing-mode="lr-tb" unicode-bidi="normal" text-decoration="none" transform="matrix(0.707107 -0.707107 0.707107 0.707107 2821.73 1684)">nonfiction</text></g><g clip-path="url(#clip25)"><text fill="#595959" fill-opacity="1" font-family="Calibri,Calibri_MSFontService,sans-serif" font-style="normal" font-variant="normal" font-weight="400" font-stretch="normal" font-size="41" text-anchor="start" direction="ltr" writing-mode="lr-tb" unicode-bidi="normal" text-decoration="none" transform="matrix(0.707107 -0.707107 0.707107 0.707107 2900.57 1705)">photobooks</text></g><g clip-path="url(#clip26)"><text fill="#595959" fill-opacity="1" font-family="Calibri,Calibri_MSFontService,sans-serif" font-style="normal" font-variant="normal" font-weight="400" font-stretch="normal" font-size="41" text-anchor="start" direction="ltr" writing-mode="lr-tb" unicode-bidi="normal" text-decoration="none" transform="matrix(0.707107 -0.707107 0.707107 0.707107 3081.55 1623)">plays</text></g><g clip-path="url(#clip27)"><text fill="#595959" fill-opacity="1" font-family="Calibri,Calibri_MSFontService,sans-serif" font-style="normal" font-variant="normal" font-weight="400" font-stretch="normal" font-size="41" text-anchor="start" direction="ltr" writing-mode="lr-tb" unicode-bidi="normal" text-decoration="none" transform="matrix(0.707107 -0.707107 0.707107 0.707107 3042.25 1762)">radio &amp; podcasts</text></g><g clip-path="url(#clip28)"><text fill="#595959" fill-opacity="1" font-family="Calibri,Calibri_MSFontService,sans-serif" font-style="normal" font-variant="normal" font-weight="400" font-stretch="normal" font-size="41" text-anchor="start" direction="ltr" writing-mode="lr-tb" unicode-bidi="normal" text-decoration="none" transform="matrix(0.707107 -0.707107 0.707107 0.707107 3290.32 1614)">rock</text></g><g clip-path="url(#clip29)"><text fill="#595959" fill-opacity="1" font-family="Calibri,Calibri_MSFontService,sans-serif" font-style="normal" font-variant="normal" font-weight="400" font-stretch="normal" font-size="41" text-anchor="start" direction="ltr" writing-mode="lr-tb" unicode-bidi="normal" text-decoration="none" transform="matrix(0.707107 -0.707107 0.707107 0.707107 3367.64 1636)">shorts</text></g><g clip-path="url(#clip30)"><text fill="#595959" fill-opacity="1" font-family="Calibri,Calibri_MSFontService,sans-serif" font-style="normal" font-variant="normal" font-weight="400" font-stretch="normal" font-size="41" text-anchor="start" direction="ltr" writing-mode="lr-tb" unicode-bidi="normal" text-decoration="none" transform="matrix(0.707107 -0.707107 0.707107 0.707107 3330.73 1773)">space exploration</text></g><g clip-path="url(#clip31)"><text fill="#595959" fill-opacity="1" font-family="Calibri,Calibri_MSFontService,sans-serif" font-style="normal" font-variant="normal" font-weight="400" font-stretch="normal" font-size="41" text-anchor="start" direction="ltr" writing-mode="lr-tb" unicode-bidi="normal" text-decoration="none" transform="matrix(0.707107 -0.707107 0.707107 0.707107 3456.13 1747)">tabletop games</text></g><g clip-path="url(#clip32)"><text fill="#595959" fill-opacity="1" font-family="Calibri,Calibri_MSFontService,sans-serif" font-style="normal" font-variant="normal" font-weight="400" font-stretch="normal" font-size="41" text-anchor="start" direction="ltr" writing-mode="lr-tb" unicode-bidi="normal" text-decoration="none" transform="matrix(0.707107 -0.707107 0.707107 0.707107 3600.17 1702)">translations</text></g><g clip-path="url(#clip33)"><text fill="#595959" fill-opacity="1" font-family="Calibri,Calibri_MSFontService,sans-serif" font-style="normal" font-variant="normal" font-weight="400" font-stretch="normal" font-size="41" text-anchor="start" direction="ltr" writing-mode="lr-tb" unicode-bidi="normal" text-decoration="none" transform="matrix(0.707107 -0.707107 0.707107 0.707107 3718.28 1684)">wearables</text></g><g clip-path="url(#clip34)"><text fill="#595959" fill-opacity="1" font-family="Calibri,Calibri_MSFontService,sans-serif" font-style="normal" font-variant="normal" font-weight="400" font-stretch="normal" font-size="41" text-anchor="start" direction="ltr" writing-mode="lr-tb" unicode-bidi="normal" text-decoration="none" transform="matrix(0.707107 -0.707107 0.707107 0.707107 3795.27 1707)">world music</text></g><g clip-path="url(#clip35)"><rect x="4035" y="832" width="23" height="23.0001" fill="#FFC000" fill-opacity="1"/></g><g clip-path="url(#clip36)"><text fill="#595959" fill-opacity="1" font-family="Calibri,Calibri_MSFontService,sans-serif" font-style="normal" font-variant="normal" font-weight="400" font-stretch="normal" font-size="41" text-anchor="start" direction="ltr" writing-mode="lr-tb" unicode-bidi="normal" text-decoration="none" transform="matrix(1 0 0 1 4067.5 854)">successful</text></g><g clip-path="url(#clip37)"><rect x="4035" y="910" width="23" height="22" fill="#A5A5A5" fill-opacity="1"/></g><g clip-path="url(#clip38)"><text fill="#595959" fill-opacity="1" font-family="Calibri,Calibri_MSFontService,sans-serif" font-style="normal" font-variant="normal" font-weight="400" font-stretch="normal" font-size="41" text-anchor="start" direction="ltr" writing-mode="lr-tb" unicode-bidi="normal" text-decoration="none" transform="matrix(1 0 0 1 4067.5 931)">live</text></g><g clip-path="url(#clip39)"><rect x="4035" y="987" width="23" height="23.0001" fill="#ED7D31" fill-opacity="1"/></g><g clip-path="url(#clip40)"><text fill="#595959" fill-opacity="1" font-family="Calibri,Calibri_MSFontService,sans-serif" font-style="normal" font-variant="normal" font-weight="400" font-stretch="normal" font-size="41" text-anchor="start" direction="ltr" writing-mode="lr-tb" unicode-bidi="normal" text-decoration="none" transform="matrix(1 0 0 1 4067.5 1008)">failed</text></g><g clip-path="url(#clip41)"><rect x="4035" y="1064" width="23" height="23" fill="#4472C4" fill-opacity="1"/></g><g clip-path="url(#clip42)"><text fill="#595959" fill-opacity="1" font-family="Calibri,Calibri_MSFontService,sans-serif" font-style="normal" font-variant="normal" font-weight="400" font-stretch="normal" font-size="41" text-anchor="start" direction="ltr" writing-mode="lr-tb" unicode-bidi="normal" text-decoration="none" transform="matrix(1 0 0 1 4067.5 1086)">canceled</text></g><rect x="1760.5" y="105.5" width="2530" height="1705" stroke="#D9D9D9" stroke-width="3.4375" stroke-linecap="butt" stroke-linejoin="round" stroke-miterlimit="10" stroke-opacity="1" fill="none"/></g></svg>